<?xml version="1.0" encoding="UTF-8" standalone="no"?>
<svg
   xmlns:dc="http://purl.org/dc/elements/1.1/"
   xmlns:cc="http://creativecommons.org/ns#"
   xmlns:rdf="http://www.w3.org/1999/02/22-rdf-syntax-ns#"
   xmlns:svg="http://www.w3.org/2000/svg"
   xmlns="http://www.w3.org/2000/svg"
   xmlns:sodipodi="http://sodipodi.sourceforge.net/DTD/sodipodi-0.dtd"
   xmlns:inkscape="http://www.inkscape.org/namespaces/inkscape"
   viewBox="0 -256 1800 1800"
   id="svg2"
   version="1.1"
   inkscape:version="0.48.3.1 r9886"
   width="100%"
   height="100%"
   sodipodi:docname="sitemap_font_awesome.svg">
  <metadata
     id="metadata12">
    <rdf:RDF>
      <cc:Work
         rdf:about="">
        <dc:format>image/svg+xml</dc:format>
        <dc:type
           rdf:resource="http://purl.org/dc/dcmitype/StillImage" />
      </cc:Work>
    </rdf:RDF>
  </metadata>
  <defs
     id="defs10" />
  <sodipodi:namedview
     pagecolor="#ffffff"
     bordercolor="#666666"
     borderopacity="1"
     objecttolerance="10"
     gridtolerance="10"
     guidetolerance="10"
     inkscape:pageopacity="0"
     inkscape:pageshadow="2"
     inkscape:window-width="640"
     inkscape:window-height="480"
     id="namedview8"
     showgrid="false"
     inkscape:zoom="5.9599"
     inkscape:cx="-74.585264"
     inkscape:cy="488.02107"
     inkscape:window-x="0"
     inkscape:window-y="25"
     inkscape:window-maximized="0"
     inkscape:current-layer="svg2" />
  <g
     transform="matrix(1,0,0,-1,7.5932207,1278.2373)"
     id="g4">
    <path
       d="M 1792,288 V -32 q 0,-40 -28,-68 -28,-28 -68,-28 h -320 q -40,0 -68,28 -28,28 -28,68 v 320 q 0,40 28,68 28,28 68,28 h 96 V 576 H 960 V 384 h 96 q 40,0 68,-28 28,-28 28,-68 V -32 q 0,-40 -28,-68 -28,-28 -68,-28 H 736 q -40,0 -68,28 -28,28 -28,68 v 320 q 0,40 28,68 28,28 68,28 h 96 V 576 H 320 V 384 h 96 q 40,0 68,-28 28,-28 28,-68 V -32 q 0,-40 -28,-68 -28,-28 -68,-28 H 96 q -40,0 -68,28 -28,28 -28,68 v 320 q 0,40 28,68 28,28 68,28 h 96 v 192 q 0,52 38,90 38,38 90,38 h 512 v 192 h -96 q -40,0 -68,28 -28,28 -28,68 v 320 q 0,40 28,68 28,28 68,28 h 320 q 40,0 68,-28 28,-28 28,-68 V 992 q 0,-40 -28,-68 -28,-28 -68,-28 H 960 V 704 h 512 q 52,0 90,-38 38,-38 38,-90 V 384 h 96 q 40,0 68,-28 28,-28 28,-68 z"
       id="path6"
       inkscape:connector-curvature="0"
       style="fill:#ffffff" />
  </g>
</svg>
